# xmcd
#
# Track frame offsets: 
#        150
#        19352
#        37775
#        58795
#        73880
#        93332
#        106417
#        118590
#        136527
#        150015
#        165784
#        184452
#        198825
#        215865
#        234522
#        248160
#
# Disc length: 3632 seconds
#
# Revision: 3
# Processed by: cddbd v1.5.2PL0 Copyright (c) Steve Scherf et al.
# Submitted via: ExactAudioCopy v1.0b3
#
DISCID=d00e2e10
DTITLE=Taj Mahal - The Very Best Of Taj Mahal - Disc 2
DYEAR=1998
DGENRE=Blues
TTITLE0=Blues Ain't Nothin'
TTITLE1=Blue Light Boogie
TTITLE2=Queen Bee
TTITLE3=Cheatin' On You
TTITLE4=Don't Call Us
TTITLE5=Mr. Pitiful
TTITLE6=Mind Your Own Business
TTITLE7=Mockingbird
TTITLE8=I Need Your Loving
TTITLE9=I Miss You Baby
TTITLE10=You Rascal You
TTITLE11=Let The Four Winds Blow
TTITLE12=(You've Got To) Love Her With A Feeling
TTITLE13=River Of Love
TTITLE14=Cakewalk Into Town
TTITLE15=End Credits
EXTD=
EXTT0=
EXTT1=
EXTT2=
EXTT3=
EXTT4=
EXTT5=
EXTT6=
EXTT7=
EXTT8=
EXTT9=
EXTT10=
EXTT11=
EXTT12=
EXTT13=
EXTT14=
EXTT15=
PLAYORDER=
